PathFileType	4	(X/Y/Z)	C:/Users/beibeiliu/ov580/test_trc/User1\sequence.16_training_dense_left.trc
DataRate	CameraRate	NumFrames	NumMarkers	Units	OrigDataRate	OrigDataStartFrame	OrigNumFrames
120	120	20	19	mm	120	68	268
Frame#	Time	ThumbCMC			ThumbMCP			ThumbIP			ThumbTip			IndexMCP			IndexPIP			IndexTip			MiddleMCP			MiddlePIP			MiddleTip			RingMCP			RingPIP			RingTip			PinkyMCP			PinkyPIP			PinkyTip			BackHand1			BackHand2			BackHand3	
		X0	Y0	Z0	X1	Y1	Z1	X2	Y2	Z2	X3	Y3	Z3	X4	Y4	Z4	X5	Y5	Z5	X6	Y6	Z6	X7	Y7	Z7	X8	Y8	Z8	X9	Y9	Z9	X10	Y10	Z10	X11	Y11	Z11	X12	Y12	Z12	X13	Y13	Z13	X14	Y14	Z14	X15	Y15	Z15	X16	Y16	Z16	X17	Y17	Z17	X18	Y18	Z18	
67	0.558333	-273.265	91.9603	44.3075	-289.293	102.575	26.9144	-314.751	108.483	15.1148	-330.744	115.712	6.41859	-301.014	61.2887	-31.5604	-273.253	70.6443	-47.5888	-255.911	80.257	-17.537	-288.107	39.5597	-35.7766	-258.361	56.1285	-46.4047	-242.658	65.132	-12.7925	-279.029	20.115	-33.7448	-251.992	38.7932	-47.1963	-240.188	52.4972	-20.7212	-272.474	-6.34703	-11.5438	-277.82	-17.7127	-25.4456	-292.736	-31.4487	-38.8273	-278.789	20.5541	34.2446	-262.983	28.219	58.775	-287.068	54.8426	45.8455	
68	0.566667	-266.433	95.7235	45.5492	-282.518	109.676	28.3855	-302.998	115.678	17.0602	-319.307	130.401	10.255	-300.145	71.9408	-32.7016	-268.184	75.5286	-45.4699	-254.211	77.5619	-14.3939	-292.67	46.1668	-35.863	-261.756	56.2561	-46.7365	-243.235	67.4828	-14.2516	-287.461	27.0678	-31.571	-258.472	39.4318	-47.9992	-239.645	48.7223	-23.5644	-281.725	-2.42502	-9.48237	-291.494	-9.44371	-25.1612	-307.696	-18.5308	-37.9036	-285.822	26.1747	31.4743	-267.697	27.62	61.436	-286.647	59.219	45.2074	
69	0.575	-256.353	94.7374	46.4765	-272.767	113.508	28.8521	-291.83	128.021	19.6876	-301.329	144.534	13.5801	-296.162	87.2943	-31.8131	-265.302	81.0142	-44.5415	-250.03	79.5472	-14.5389	-292.383	57.1015	-37.4587	-261.765	60.2492	-47.3315	-240.424	66.4778	-12.3933	-291.437	33.8933	-32.6948	-263.48	40.4564	-49.4643	-242.393	51.102	-24.6807	-295.159	6.94825	-10.3196	-305.213	2.94305	-25.0763	-320.767	-5.06315	-36.2023	-289.824	32.8223	35.1551	-269.734	31.4659	63.4958	-284.46	67.2361	47.0053	
70	0.583333	-247.969	97.8922	48.4861	-257.587	114.094	30.3362	-273.098	136.361	21.5844	-281.423	155.111	15.6539	-287.603	98.4896	-31.2963	-261.891	89.4966	-47.341	-243.22	79.4472	-12.6342	-291.08	72.2555	-34.7364	-259.598	65.6227	-47.1113	-236.616	67.5309	-15.6959	-296.033	45.4794	-32.9959	-262.613	49.6182	-48.5399	-242.619	50.3233	-19.9429	-305.238	18.4325	-12.0285	-313.623	13.0174	-24.2014	-335.167	13.8686	-41.6287	-295.611	42.0477	31.7316	-274.893	40.9948	61.5184	-280.604	74.9906	47.6601	
71	0.591667	-242.51	96.0846	48.5156	-241.854	116.034	35.0933	-255.854	137.073	23.1953	-258.213	160.263	17.9293	-278.701	101.267	-30.5553	-251.61	88.618	-44.122	-237.466	78.6085	-12.0179	-287.15	80.6092	-35.0477	-254.704	72.0445	-47.0403	-233.016	63.9066	-12.2669	-293.509	58.6612	-35.9174	-266.74	53.2736	-50.0997	-243.423	49.6994	-19.6446	-307.179	30.9297	-9.61364	-320.862	28.722	-27.297	-342.593	30.1621	-41.9636	-297.202	52.1646	29.3129	-280.568	43.5533	59.976	-276.529	83.289	47.0346	
72	0.6	-231.241	90.7027	53.1881	-231.437	112.298	36.9677	-238.279	138.049	28.4437	-240.625	157.139	20.0782	-268.224	107.468	-29.1035	-246.222	88.8496	-44.2635	-230.656	76.5305	-15.0093	-280.265	85.072	-36.5044	-250.105	68.6332	-45.1693	-233.332	58.485	-13.5085	-292.608	65.8464	-35.1845	-262.369	57.5565	-49.5743	-243.046	51.8021	-20.0593	-309.566	44.8183	-11.0927	-323.139	40.2381	-26.621	-344.425	41.3409	-40.8429	-296.785	57.9646	32.3478	-280.665	47.3573	62.9122	-271.345	82.501	49.4099	
73	0.608333	-226.304	83.6811	54.2293	-225.657	106.803	36.8347	-226.941	134.739	28.0773	-219.222	152.891	24.7394	-256.709	112.086	-25.1113	-235.735	91.1557	-43.1014	-227.907	72.4252	-10.9593	-272.505	93.6082	-33.1507	-248.905	73.038	-46.4884	-232.322	56.1829	-10.9458	-289.352	76.4422	-32.6593	-259.921	61.8063	-48.4064	-244.481	50.0892	-19.8697	-312.421	54.6273	-14.5741	-324.756	50.973	-28.2965	-342.668	60.891	-45.1075	-292.674	68.7806	30.2164	-285.579	50.0158	57.7602	-266.899	85.1133	48.3348	
74	0.616667	-224.667	78.3311	53.1354	-214.804	102.807	40.1332	-214.844	129.886	30.0015	-204.075	146.832	28.8356	-248.104	112.643	-24.5925	-232.424	89.6101	-42.5148	-221.437	71.9049	-12.8722	-265.36	97.156	-35.1518	-243.926	73.7286	-45.655	-228.544	56.8993	-14.4702	-284.207	83.528	-31.6824	-258.447	61.9307	-50.0927	-244.971	50.4266	-25.852	-310.799	60.8278	-13.9808	-319.507	63.8178	-27.7731	-337.92	73.5936	-44.3087	-290.934	68.1985	30.7199	-282.147	55.7614	60.6661	-260.778	86.1066	49.9884	
75	0.625	-219.791	76.5763	54.2493	-210.032	96.8281	38.8932	-204.232	121.523	33.9398	-193.105	139.564	29.0515	-243.12	112.892	-24.5084	-227.491	86.8352	-41.5827	-217.604	69.5488	-14.0293	-260.369	100.492	-33.3392	-241.241	74.07	-46.8088	-229.966	54.7799	-11.6403	-281.29	84.5193	-34.5667	-256.211	67.7088	-50.6854	-244.451	48.7266	-20.8691	-305.769	68.5546	-13.782	-319.304	69.9113	-28.3277	-334.59	84.649	-44.1276	-286.42	78.0432	27.7756	-281.014	56.4407	60.5131	-258.934	83.8591	52.215	
76	0.633333	-217.947	74.5434	53.9383	-204.447	91.9508	42.0866	-200.027	116.694	32.2085	-184.551	134.548	31.4649	-231.937	114.904	-20.3168	-219.543	89.9603	-42.6168	-218.092	66.9614	-15.7457	-254.702	101.503	-34.697	-238.326	73.5526	-47.0734	-227.884	54.5382	-15.0616	-275.001	90.8391	-33.1215	-255.269	65.1477	-50.5293	-245.624	49.4918	-24.5979	-306.669	73.3399	-15.3032	-316.512	77.2691	-28.6379	-334.018	92.7241	-45.1784	-283.902	76.6417	30.2855	-285.719	59.3053	56.1085	-257.05	86.6693	49.3391	
77	0.641667	-219.793	68.185	54.9115	-204.775	88.9401	41.463	-193.065	113.164	35.2814	-180.407	128.673	31.8232	-230.644	113.322	-20.6775	-218.005	88.2739	-42.0448	-216.308	64.6705	-13.3188	-250.405	104.048	-32.1218	-234.672	77.5731	-46.5503	-230.57	54.4148	-14.3699	-272.563	91.2322	-34.5289	-253.628	65.968	-48.9335	-244.528	50.0238	-20.7077	-303.852	80.401	-16.1156	-314.594	85.182	-30.8202	-325.372	98.1682	-44.5568	-285.479	81.8234	30.0714	-284.24	59.7696	57.011	-255.815	86.4487	50.1096	
78	0.65	-215.915	68.1612	57.5994	-203.092	89.4604	42.4382	-192.329	110.663	35.3621	-179.886	127.806	30.2212	-226.166	112.875	-21.356	-215.274	91.0871	-41.7053	-214.32	65.7905	-16.3848	-252.399	104.041	-30.008	-231.89	74.4242	-44.7106	-226.945	55.7428	-13.1939	-271.466	94.6425	-31.3571	-253.519	68.3531	-50.1087	-243.771	51.7027	-25.0957	-299.615	80.9729	-13.311	-312.941	89.7721	-32.1603	-325.045	102.866	-44.4025	-280.243	81.0997	31.1183	-282.475	62.4223	55.8157	-250.391	85.4377	51.192	
79	0.658333	-216.698	67.7987	56.1193	-199.848	86.9579	44.7052	-186.866	110.595	38.7418	-174.056	125.906	33.7316	-224.94	113.836	-18.3167	-214.851	87.6112	-39.5611	-212.325	65.5796	-16.2287	-248.166	105.339	-30.414	-230.81	80.0907	-45.2112	-229.633	55.9231	-14.1567	-266.563	97.7373	-34.9388	-252.115	71.8809	-49.2493	-241.641	53.9387	-24.4178	-299.124	85.6723	-13.9518	-309.93	91.1505	-28.0419	-321.112	106.178	-42.9937	-280.84	82.2657	31.0584	-281.491	66.6683	57.4826	-250.348	87.5326	52.6175	
80	0.666667	-216.868	66.6411	56.0847	-196.235	83.1544	47.6891	-187.336	108.182	38.3698	-171.811	121.771	33.8931	-220.111	115.238	-20.1573	-212.611	88.4319	-38.5596	-209.383	66.7783	-11.8028	-244.648	107.062	-29.0659	-229.662	78.0927	-44.3639	-226.539	57.0692	-13.6325	-263.802	100.28	-29.9894	-247.769	78.463	-48.3594	-239.157	56.4808	-20.6398	-300.565	87.903	-15.535	-304.039	96.5405	-28.433	-319.227	110.091	-41.5388	-281.427	89.0613	29.0136	-278.407	66.4317	58.0759	-248.238	86.7257	54.0948	
81	0.675	-212.515	66.4648	59.6392	-195.279	84.3273	47.5035	-183.493	107.411	41.6988	-168.081	120.121	36.9086	-217.441	116.106	-15.1528	-211.98	93.1376	-37.7713	-212.329	67.5938	-10.5986	-238.334	109.911	-26.9343	-223.835	82.2389	-42.958	-228.216	55.9408	-12.9213	-263.255	101.589	-29.3712	-248.457	78.8757	-48.5179	-238.362	57.167	-19.1124	-294.339	94.4321	-15.9394	-302.792	101.742	-28.4275	-318.776	114.499	-41.7243	-279.756	88.0337	30.9661	-282.243	66.6258	55.9072	-247.399	87.039	53.5262	
82	0.683333	-213.451	66.4178	59.8345	-196.317	79.9329	48.3276	-181.667	106.426	41.6217	-167.677	121.091	38.0717	-213.548	118.768	-13.6872	-207.023	95.6615	-36.1826	-212.02	68.9225	-11.8658	-238.568	112.849	-22.9617	-223.408	81.8915	-41.2582	-226.789	57.389	-11.5306	-260.36	105.236	-29.2836	-247.047	80.7442	-47.1385	-236.735	60.269	-20.6244	-291.792	94.3078	-11.3342	-301.936	104.026	-26.7703	-313.019	118.315	-40.0737	-274.705	93.2417	31.454	-278.967	69.6752	58.7293	-248.128	87.098	56.906	
83	0.691667	-214.618	62.5344	60.0549	-193.168	80.8309	50.2222	-182.283	104.109	43.2386	-164.617	119.629	41.5553	-211.661	119.104	-10.4259	-206.554	95.909	-34.8049	-209.281	69.272	-11.5645	-237.493	113.355	-26.3711	-225.738	83.9398	-41.1033	-226.716	59.1002	-13.432	-258.752	107.444	-26.8099	-244.661	83.1628	-46.3332	-239.6	59.4169	-19.7408	-292.346	96.2827	-11.8402	-301.011	104.806	-26.2737	-309.118	125.543	-39.8869	-276.512	92.6104	31.0079	-281.701	68.7582	57.2302	-246.024	88.8015	56.5932	
84	0.7	-212.999	66.1862	60.0097	-192.772	82.255	50.2595	-177.574	103.966	48.0764	-162.888	116.614	43.934	-210.462	119.723	-9.56318	-205.958	93.1051	-33.6544	-206.591	69.3843	-11.7176	-231.854	113.275	-24.5876	-223.898	85.7753	-41.7392	-222.672	58.4645	-11.4303	-257.498	107.21	-28.6601	-239.54	80.666	-44.0822	-236.784	60.1212	-17.2741	-289.211	101.759	-12.6848	-299.22	107.534	-26.7682	-306.226	127.747	-37.8561	-276.811	94.8813	32.1927	-279.278	67.9217	59.0225	-243.979	88.9063	57.3924	
85	0.708333	-211.861	63.9779	59.6308	-194.354	81.7978	47.11	-179.847	102.138	42.7802	-161.855	116.503	43.3335	-210.555	117.348	-13.7605	-205.905	95.548	-34.9073	-208.457	67.9698	-11.3329	-231.977	113.416	-24.034	-219.664	82.1718	-40.3954	-221.891	57.9987	-13.1117	-257.368	105.584	-30.9228	-237.732	80.7195	-45.1166	-238.833	57.4882	-17.6931	-292.237	100.783	-15.6191	-296.14	108.592	-27.6181	-309.479	128.355	-40.648	-275.927	91.9418	31.4771	-277.443	71.953	56.4877	-243.265	86.3936	57.6785	
86	0.716667	-213.052	64.1504	56.6551	-192.166	81.2601	44.5183	-175.982	99.5299	41.7826	-158.729	117.24	39.2928	-212.162	114.14	-17.2524	-202.522	88.7813	-38.8913	-208.025	63.6171	-11.4516	-236.603	108.777	-28.273	-222.077	80.7587	-44.2036	-224.202	52.865	-11.2688	-254.921	101.491	-33.0972	-239.865	72.4084	-46.8883	-238.049	53.9983	-22.7212	-288.158	98.3527	-16.9096	-294.503	109.077	-33.1751	-308.503	122.47	-42.3853	-275.154	89.2497	28.8453	-276.579	73.5111	54.9435	-242.333	89.1034	54.4715	
